# xmcd
#
# Track frame offsets:
# 150
# 16441
# 35352
# 59415
# 75847
# 89357
# 107934
# 131344
# 150033
# 166792
# 181023
#
# Disc length: 2954 seconds
#
#
# Revision: 1
# Processed by: cddbd v1.5.2PL0 Copyright (c) Steve Scherf et al.
# Submitted via: FreeRIP 2.951 
#
DISCID=6f0b880b
DTITLE=Will Young - Friday's Child
DYEAR=2003
DGENRE=Country
TTITLE0=Will Young - Love The One You're With
TTITLE1=Will Young - Your Game
TTITLE2=Will Young - Stronger
TTITLE3=Will Young - Leave Right Now
TTITLE4=Will Young - Love Is A Matter Of Distance
TTITLE5=Will Young - Dance The Night Away
TTITLE6=Will Young - Very Kind
TTITLE7=Will Young - Free
TTITLE8=Will Young - Going My Way
TTITLE9=Will Young - Out Of My Mind
TTITLE10=Will Young - Friday's Child
EXTD=
EXTT0=
EXTT1=
EXTT2=
EXTT3=
EXTT4=
EXTT5=
EXTT6=
EXTT7=
EXTT8=
EXTT9=
EXTT10=
PLAYORDER=
